<svg xmlns="http://www.w3.org/2000/svg" viewBox="0 0 1535.8 973.6" fill="currentColor" aria-hidden="true" focusable="false" data-slug="european-bison" data-facing="right" data-ground-y="973.2" data-shoulder-y="18.5" data-scale-basis="width"><path fill-rule="evenodd" d="M1363.3 0.0 1371.4 12.3 1376.9 30.8 1378.5 44.5 1377.5 71.7 1392.3 84.2 1396.2 84.5 1398.6 80.5 1386.5 64.4 1399.8 79.7 1406.6 79.0 1390.0 60.2 1415.4 83.6 1420.4 85.0 1410.8 71.9 1429.6 93.0 1421.5 76.8 1435.3 99.6 1434.5 120.2 1437.9 114.6 1438.2 100.9 1433.4 85.7 1439.5 103.2 1439.5 112.6 1434.0 125.6 1435.3 137.3 1438.1 141.7 1446.3 146.4 1437.4 142.6 1437.9 145.4 1442.0 150.4 1453.8 157.1 1443.1 153.2 1463.5 171.4 1450.2 162.3 1459.7 175.3 1472.3 186.3 1461.9 179.8 1470.0 191.8 1485.0 201.2 1474.6 197.3 1493.4 219.1 1489.5 216.5 1505.7 246.7 1512.9 263.2 1510.0 260.9 1510.9 265.5 1528.1 289.5 1530.4 308.0 1535.6 323.9 1535.3 330.1 1529.8 340.1 1522.5 348.1 1516.6 351.6 1509.0 353.1 1509.3 362.5 1506.2 365.6 1491.9 368.2 1474.1 379.2 1451.7 373.7 1441.6 374.4 1432.2 379.2 1427.8 387.5 1431.4 417.0 1427.5 401.5 1426.9 386.2 1425.3 386.2 1421.0 394.7 1427.5 423.2 1428.5 437.5 1424.3 414.4 1419.2 401.0 1417.8 437.5 1411.9 454.0 1417.5 431.3 1416.0 414.3 1403.5 439.8 1399.6 457.0 1401.7 439.0 1395.1 447.9 1392.6 460.0 1393.0 451.3 1379.0 460.0 1375.4 467.5 1376.7 460.7 1368.3 464.3 1346.9 492.8 1351.6 483.3 1364.6 467.3 1364.4 464.9 1355.0 466.2 1350.9 469.0 1340.2 487.1 1338.1 496.4 1338.9 487.8 1350.6 467.0 1333.9 470.4 1327.6 481.6 1325.1 499.3 1325.9 482.9 1331.3 469.8 1328.1 470.8 1325.6 475.5 1321.9 498.3 1323.0 483.3 1326.6 469.6 1309.2 470.8 1308.3 480.2 1307.6 470.4 1295.9 470.4 1296.1 477.1 1303.1 501.6 1294.5 471.6 1287.2 469.8 1287.6 475.8 1298.0 502.4 1297.9 516.8 1297.1 502.1 1285.4 470.3 1276.1 467.8 1275.1 477.2 1274.3 468.3 1269.3 466.9 1267.8 472.9 1269.8 485.8 1283.9 514.6 1268.8 486.2 1266.5 466.4 1261.0 465.7 1260.2 473.4 1259.1 463.8 1252.4 459.1 1252.1 467.2 1250.2 457.8 1237.3 482.0 1239.6 492.7 1235.4 485.5 1208.5 530.3 1204.1 542.5 1205.2 534.9 1219.8 511.8 1221.3 506.1 1202.0 528.0 1196.4 549.1 1198.2 531.8 1191.3 539.1 1190.6 547.8 1188.2 542.5 1184.8 545.6 1183.5 557.9 1181.0 550.9 1177.6 553.7 1169.8 586.8 1174.7 564.7 1174.5 557.4 1170.5 565.0 1142.9 592.0 1131.2 613.7 1128.1 630.1 1129.3 617.0 1140.1 592.8 1121.5 610.5 1115.1 638.5 1119.5 610.2 1111.1 616.6 1109.3 632.1 1109.5 617.9 1103.0 621.5 1100.4 648.1 1097.0 656.7 1100.4 643.3 1100.2 623.0 1091.3 650.4 1083.0 661.6 1090.6 649.4 1096.6 625.9 1081.9 635.1 1066.1 661.9 1078.5 636.6 1068.7 641.1 1063.2 647.0 1063.2 643.7 1056.1 647.0 1051.2 652.8 1051.2 648.6 1042.4 651.5 1042.1 659.3 1040.8 652.8 1035.5 654.3 1035.1 663.7 1039.4 679.6 1051.7 700.4 1037.7 679.6 1039.4 691.0 1046.8 704.6 1040.7 694.5 1040.0 696.2 1043.6 739.0 1042.3 748.1 1042.0 722.1 1040.0 718.6 1038.4 754.3 1038.7 779.6 1042.9 798.1 1043.6 847.4 1048.5 863.0 1045.9 862.3 1045.9 865.9 1064.0 911.3 1074.9 917.7 1073.8 919.1 1076.2 920.9 1098.6 928.4 1117.9 949.6 1117.1 953.4 1102.7 954.5 1110.3 968.6 1092.8 972.8 1073.0 973.5 1014.2 964.1 1010.2 961.3 1008.2 956.4 1008.2 927.2 1004.0 909.4 1000.4 910.7 994.4 928.4 988.6 925.8 980.9 915.9 977.1 901.3 978.7 888.3 974.1 894.1 978.3 878.9 976.7 876.6 972.8 887.3 973.2 881.1 976.7 874.0 975.8 867.8 974.3 866.1 971.9 868.5 968.9 878.2 968.9 873.0 973.5 863.9 972.8 858.1 971.0 857.0 968.3 859.4 963.7 869.8 966.3 860.7 971.5 855.2 970.2 832.5 964.7 838.3 958.9 850.0 969.9 823.1 973.2 800.3 971.9 786.4 957.4 755.7 954.7 774.0 955.0 752.3 947.8 736.4 945.2 741.3 942.3 705.9 939.1 717.3 937.1 740.0 937.8 719.5 942.6 688.7 932.6 711.7 927.7 736.1 931.3 712.7 942.6 683.8 942.0 675.7 931.3 695.2 943.3 667.6 943.6 653.3 942.5 650.9 940.7 653.3 943.6 637.4 942.2 624.3 928.7 668.9 921.2 682.5 917.0 705.2 914.4 708.2 918.6 691.6 914.7 700.7 910.5 726.7 909.1 719.7 906.6 728.6 904.0 752.0 906.6 783.1 903.7 769.5 898.2 802.3 897.5 820.8 901.4 838.0 910.8 857.5 915.9 861.2 944.8 871.3 944.4 873.8 934.5 879.5 961.1 900.0 943.5 909.9 929.8 914.4 872.1 912.5 860.7 899.2 848.9 890.2 848.5 870.4 842.7 858.4 832.8 859.6 826.8 856.5 825.2 826.9 821.8 820.6 819.0 823.4 819.6 812.3 816.7 814.6 811.9 831.8 814.1 819.5 820.9 801.0 820.9 794.8 822.9 796.8 828.4 780.9 828.2 778.8 823.5 785.7 835.9 761.7 836.0 757.3 829.7 765.6 835.9 755.2 838.5 745.8 838.8 701.3 836.8 696.5 834.9 711.7 837.2 689.7 835.5 668.6 834.1 666.1 832.3 666.9 826.1 676.0 824.2 683.5 823.9 680.3 827.4 671.5 835.5 661.1 836.2 648.8 829.7 652.3 836.8 644.6 845.6 629.0 833.0 634.2 846.1 626.9 849.0 621.7 838.0 619.7 825.6 626.5 816.2 628.5 831.2 623.0 833.8 619.4 804.6 614.5 787.0 608.0 802.0 620.7 783.5 607.7 765.9 600.9 748.9 598.8 770.8 607.1 732.2 596.4 710.4 595.1 741.3 603.2 701.3 594.1 643.9 585.3 642.4 585.8 644.2 587.6 649.1 590.2 667.6 595.7 663.4 595.7 649.7 591.5 638.4 584.7 576.7 564.9 572.7 564.7 581.3 571.4 568.9 563.6 561.1 561.3 567.0 570.4 582.1 580.6 588.9 591.3 578.3 578.5 569.7 573.8 588.2 618.6 579.3 597.7 579.2 617.0 574.4 629.1 558.1 600.1 531.8 584.2 541.0 586.9 478.1 565.2 432.3 544.8 401.5 525.9 365.1 497.4 357.5 527.7 351.0 543.9 320.5 582.9 306.2 614.0 299.7 647.5 300.0 692.9 307.8 730.9 321.5 780.9 333.5 799.4 328.6 795.8 335.7 809.4 348.1 824.0 343.2 822.4 355.5 838.0 350.3 833.1 358.8 849.7 364.1 856.6 369.7 859.9 401.1 869.3 402.1 871.3 392.1 878.4 409.7 882.1 403.1 889.1 391.1 894.6 336.9 905.0 325.2 905.0 318.4 901.4 310.8 893.2 287.2 846.3 285.8 849.3 290.3 861.0 284.0 862.5 280.1 860.9 272.8 852.6 263.5 835.5 262.1 846.4 262.1 835.1 257.0 831.0 254.6 836.0 253.3 848.0 253.0 839.6 255.9 829.9 253.3 810.4 249.1 816.6 247.1 825.3 246.8 820.8 254.9 805.9 255.6 803.3 252.7 803.6 258.2 796.4 260.1 787.0 258.2 761.4 253.0 744.2 242.3 721.5 216.6 687.1 211.0 676.5 205.3 723.1 204.3 747.4 205.3 791.2 208.5 811.4 216.0 821.1 211.9 819.0 212.4 822.7 223.1 838.3 217.8 833.6 218.3 837.7 232.9 861.0 225.9 853.4 226.7 858.8 231.2 872.4 241.0 888.0 247.0 894.0 281.1 916.0 292.3 927.2 298.4 937.0 265.6 939.2 282.5 963.9 270.3 966.7 251.2 963.4 215.2 949.1 197.6 941.0 188.4 933.4 185.5 926.6 182.9 897.7 173.5 878.6 171.7 877.1 170.9 878.9 170.4 892.7 158.4 890.7 152.1 880.8 145.2 849.7 142.0 859.7 143.6 845.8 142.0 839.9 139.9 837.8 138.1 840.6 135.8 854.9 135.8 845.8 140.4 830.8 134.2 801.6 127.7 809.7 133.9 797.7 137.8 778.6 131.6 788.3 138.4 768.2 139.1 739.6 133.2 694.5 125.4 660.1 111.5 612.7 109.9 592.3 112.5 584.2 127.4 563.7 133.2 550.8 134.5 517.7 130.3 498.8 112.1 453.7 104.7 427.4 99.5 395.0 95.3 331.0 76.8 271.3 77.4 258.3 81.6 244.1 105.3 206.7 91.2 211.4 80.5 217.6 73.5 225.6 68.6 238.9 65.4 268.4 66.0 298.9 81.9 379.4 82.3 400.2 79.4 413.5 81.6 395.9 80.0 380.4 74.5 407.6 73.3 405.5 71.6 407.3 56.0 433.9 50.1 449.2 47.2 464.8 48.2 487.5 61.5 527.4 49.0 497.0 54.4 533.6 60.5 547.2 73.5 560.5 59.9 549.1 76.1 574.8 82.6 589.7 72.5 571.2 79.4 596.5 79.4 621.8 76.8 603.0 51.8 583.2 66.7 605.3 72.0 620.4 64.1 603.0 50.5 583.5 32.8 568.4 44.8 586.0 16.1 553.0 7.0 535.8 1.5 515.1 0.5 475.5 9.9 441.7 17.0 423.2 9.6 445.3 11.5 444.3 24.8 423.9 35.5 399.5 29.0 416.1 30.3 416.7 41.4 399.2 45.9 383.9 45.8 391.9 50.1 384.6 52.4 374.5 49.2 362.8 53.2 373.1 56.0 367.4 55.0 355.7 44.0 327.5 36.5 300.9 33.9 279.4 33.9 257.4 37.2 223.9 43.3 199.6 51.1 184.7 63.6 171.8 83.1 161.1 114.9 151.7 128.5 151.1 138.9 153.3 173.6 151.1 219.4 152.4 255.7 141.7 284.0 138.7 332.7 125.8 358.9 125.8 408.9 131.3 430.7 131.0 449.2 129.0 456.8 127.2 451.1 125.8 468.0 124.1 521.5 113.1 489.1 113.1 561.1 108.9 540.4 106.6 607.9 108.2 614.2 107.1 609.2 105.6 568.3 104.0 638.7 106.3 661.4 103.7 667.9 101.7 665.3 99.8 639.0 96.9 675.7 99.8 700.7 94.0 710.6 89.9 695.8 89.1 718.5 87.1 729.1 81.1 716.6 81.9 734.5 77.4 765.6 63.8 742.9 74.5 758.1 69.9 771.5 64.7 774.4 61.8 798.7 54.7 803.1 52.3 800.7 50.8 823.1 45.6 812.7 42.7 791.2 44.6 794.2 42.4 810.7 41.4 829.5 44.0 832.3 42.2 821.4 34.9 833.1 41.4 836.7 41.4 854.2 36.5 848.0 34.9 864.6 33.3 882.4 28.4 885.5 26.6 883.7 25.2 911.3 22.6 899.6 15.7 884.4 11.8 892.8 12.5 918.1 22.6 902.2 11.5 918.8 20.6 928.9 21.3 916.8 14.4 910.0 8.0 924.0 17.7 937.0 20.3 968.8 19.3 971.0 18.3 962.0 16.7 981.1 19.3 1015.8 19.3 1002.2 8.3 1023.0 20.6 1037.4 23.0 1027.5 14.1 1043.4 24.2 1095.3 38.8 1088.2 31.0 1079.8 25.8 1042.1 11.8 1077.8 23.9 1090.2 31.3 1098.3 39.4 1118.1 48.2 1102.2 30.7 1076.2 11.8 1096.0 24.5 1130.1 55.3 1128.0 48.4 1119.2 37.0 1099.4 21.4 1106.7 24.8 1122.4 39.6 1137.5 60.2 1152.8 69.6 1166.1 72.5 1169.8 71.7 1155.4 60.5 1148.9 52.1 1165.5 67.3 1177.5 72.5 1199.9 65.1 1201.5 53.4 1203.1 63.1 1207.5 48.7 1213.5 40.7 1207.8 50.3 1206.2 57.8 1208.0 60.5 1214.5 57.3 1219.5 45.1 1232.6 32.6 1220.1 45.4 1218.0 55.3 1233.6 50.1 1254.4 32.0 1236.5 50.5 1260.2 44.3 1264.3 40.2 1267.4 32.6 1264.9 40.6 1257.0 48.2 1267.0 47.5 1269.0 44.9 1280.7 46.6 1283.3 42.4 1286.2 46.9 1298.5 47.5 1299.7 31.8 1301.9 26.9 1306.0 24.5 1300.3 33.8 1301.1 47.5 1313.4 49.5 1315.1 45.9 1317.7 50.1 1324.5 50.1 1330.0 53.1 1334.5 52.4 1339.4 47.9 1336.0 54.2 1340.4 55.7 1347.7 50.0 1352.6 41.9ZM961.8 8.8 981.4 9.9 997.5 16.9 981.4 10.9ZM1126.0 29.2 1140.6 51.9 1156.0 69.6 1140.6 53.9ZM1320.1 32.8 1315.1 44.0 1315.6 38.9ZM73.2 411.9 54.2 449.0 57.6 438.8ZM1391.2 463.8 1385.0 474.5 1368.9 494.1ZM1276.0 480.7 1284.2 498.3 1277.9 488.4ZM1234.1 492.0 1232.8 509.2 1219.3 531.1 1231.2 510.5ZM1168.5 572.2 1164.0 580.9 1138.8 614.5 1143.5 605.0ZM82.9 594.2 84.5 601.4 83.9 619.6 75.9 657.7 82.9 619.6ZM581.1 638.4 587.4 653.5 581.8 645.2ZM574.0 643.6 578.8 657.5 585.8 666.8 578.2 658.2ZM1057.9 657.9 1054.1 682.7 1054.6 668.9ZM134.8 813.3 126.2 831.3 129.0 822.1ZM138.1 828.2 132.1 848.5 132.9 838.6Z"/></svg>