<svg xmlns="http://www.w3.org/2000/svg" viewBox="0 0 64 64" role="img" aria-label="Fix Planet">
  <defs>
    <radialGradient id="globeFill" cx="42%" cy="38%" r="70%">
      <stop offset="0%" stop-color="#2a2a28"/>
      <stop offset="55%" stop-color="#121211"/>
      <stop offset="100%" stop-color="#050505"/>
    </radialGradient>
    <filter id="grain">
      <feTurbulence type="fractalNoise" baseFrequency="0.9" numOctaves="2" result="n"/>
      <feColorMatrix type="saturate" values="0"/>
      <feComponentTransfer>
        <feFuncA type="table" tableValues="0 0.18"/>
      </feComponentTransfer>
      <feBlend in="SourceGraphic" mode="multiply"/>
    </filter>
    <radialGradient id="flare" cx="78%" cy="78%" r="22%">
      <stop offset="0%" stop-color="#ff6a1a"/>
      <stop offset="35%" stop-color="#ff3b00" stop-opacity="0.85"/>
      <stop offset="100%" stop-color="#ff3b00" stop-opacity="0"/>
    </radialGradient>
  </defs>
  <circle cx="32" cy="32" r="30.2" fill="url(#globeFill)"/>
  <circle cx="32" cy="32" r="30.2" fill="#1a1a18" filter="url(#grain)" opacity="0.55"/>
  <g fill="none" stroke="#c0ff00" stroke-width="1.15" stroke-linejoin="round" stroke-linecap="round">
    <circle cx="32" cy="32" r="30.2"/>
    <!-- Africa -->
    <path d="M31.2 24.2c1.4.2 2.6 1.6 2.8 3.4.3 2.1-.4 4.2-1.2 6.1-.7 1.6-1.4 3.4-1.1 5.1.2 1.1 1.1 2 1.1 3.2 0 1.2-1.2 2.1-2.4 2.2-1.4.1-2.4-1.1-3.1-2.3-1.2-2.1-1.8-4.6-1.4-7 .3-1.8 1.4-3.3 1.6-5.1.2-1.6-.6-3.2.1-4.6.6-1.1 2.1-1.2 3.6-1z"/>
    <!-- Europe -->
    <path d="M29.6 18.4c1.2-.6 2.8-.4 3.8.6 1 .9 1.1 2.4.4 3.5-.8 1.2-2.4 1.5-3.7 1.1-1-.3-1.7-1.3-1.6-2.3.1-1.1.6-2.2 1.1-2.9z"/>
    <!-- Asia -->
    <path d="M35.2 17.8c2.2-.8 5.1-.6 7.2.8 2.1 1.4 3.3 3.8 3.1 6.2-.2 2.2-1.6 4.1-3.4 5.3-1.5 1-3.4 1.3-5.1.8-1.2-.4-2.1-1.4-2.4-2.6-.4-1.6.2-3.3.1-4.9-.1-1.6-1-3.3.5-4.6z"/>
    <!-- Americas (partial) -->
    <path d="M18.8 20.6c1.6-1.1 3.6-.6 4.6.8 1 1.4.8 3.4-.1 4.8-.9 1.4-2.5 2.2-3.4 3.6-.8 1.2-.6 2.8-1.2 4.1-.7 1.5-2.2 2.4-3.7 2.2-1.1-.2-1.8-1.3-1.7-2.4.2-2.2 1.6-4.1 2.4-6.2.7-1.8.8-4 3.1-6.9z"/>
    <path d="M17.2 38.4c1.1-.2 2.2.6 2.6 1.6.6 1.4.1 3-.8 4.1-1.1 1.3-2.8 1.8-4.3 1.4-1-.3-1.6-1.3-1.5-2.3.2-1.6 2.2-4.4 4-4.8z"/>
  </g>
  <circle cx="50.5" cy="49.5" r="7.5" fill="url(#flare)"/>
</svg>
